<svg width="416" height="844" viewBox="0 0 416 844" fill="none" xmlns="http://www.w3.org/2000/svg">
<path d="M163.588 0.243198C168.605 -0.488902 173.112 0.501095 177.782 2.28559C184.774 4.95739 191.626 8.7045 198.179 12.3179C228.456 29.0152 256.492 52.8842 270.722 85.0872C278.217 101.653 280.831 120.012 278.259 138.012C267.908 211.262 184.613 235.887 159.35 301.91C151.013 323.698 148.415 349.979 155.961 372.363C158.189 378.973 161.773 384.829 164.361 391.235C165.012 392.845 164.926 394.606 164.247 396.191C163.148 398.756 161.284 399.759 158.825 400.813C158.44 400.808 158.055 400.794 157.67 400.772C151.508 400.41 145.06 398.269 139.277 396.243C113.546 387.151 90.5381 371.688 72.4021 351.297C55.2621 331.782 45.3291 306.982 44.2591 281.032C43.3531 262.513 47.1261 244.285 54.1801 227.208C62.7991 206.343 76.2181 187.901 91.7111 171.611C118.36 143.591 158.052 116.369 170.891 78.5272C177.812 58.1282 175.209 37.6992 166.12 18.4532C164.117 14.2122 160.092 9.6763 160.638 4.7204C160.869 2.6271 162.085 1.5294 163.588 0.243198Z" fill="url(#paint0_linear_2057_8)"/>
<path d="M95.975 535.196C110.747 534.698 125.673 535.107 140.461 535.106L225.321 535.108L289.049 535.149C297.887 535.166 307.027 534.509 315.817 535.049C317.849 535.173 321.467 535.479 322.9 537.209C325.31 540.119 324.16 546.812 323.644 550.283C322.33 559.108 320.407 579.597 316.746 586.463C310.011 599.09 279.634 586.837 269.888 594.66C267.516 596.564 266.798 599.518 266.239 602.376C265.108 608.156 264.881 614.377 264.299 620.244L260.811 655.449L249.008 770.751C247.257 785.855 246.397 801.056 244.696 816.161C243.764 824.441 241.267 832.313 234.35 837.616C231.539 839.771 228.383 841.16 224.943 841.956C217.953 843.576 201.163 843.397 193.924 842.37C184.877 841.087 177.81 836.512 174.029 827.939C170.208 819.279 168.581 788.983 167.388 777.678L154.221 653.35C152.438 636.885 151.482 620.133 149.117 603.76C148.762 601.299 148.37 598.162 146.78 596.182C145.593 594.704 143.405 593.143 141.55 592.715C133.25 590.801 118.579 593.139 109.203 592.16C105.366 591.759 102.162 590.076 99.815 586.95C98.808 585.609 98.242 584.282 97.799 582.665C96.161 576.679 90.781 544.824 91.786 540.008C92.272 537.683 94.095 536.39 95.975 535.196Z" fill="#0067B0"/>
<path d="M272.987 420.378L361.2 420.166L387.958 420.125C393.29 420.109 398.883 419.759 404.17 420.341C406.978 420.651 409.596 421.504 411.744 423.407C414.337 425.705 415.512 428.948 415.587 432.358C415.638 434.67 415.228 436.984 414.685 439.225C412.663 447.564 409.726 455.835 407.36 464.101C404.654 473.551 402.466 483.835 398.772 492.902C397.683 495.575 396.18 498.083 394.134 500.135C391.189 503.089 387.837 504.409 383.739 504.864C375.413 505.788 366.496 505.167 358.114 505.156L309.194 505.104L143.894 505.156L68.6542 505.213C57.1262 505.222 42.6042 506.236 31.5412 504.795C27.8272 504.311 24.4222 503.235 21.6302 500.612C19.6022 498.707 18.2472 496.326 17.2052 493.771C14.2132 486.433 -0.0528527 438.757 0.000147292 432.699C0.0251473 429.768 1.43717 426.565 3.53317 424.534C5.54517 422.584 7.93915 421.519 10.7071 421.257C20.0821 420.372 30.0232 420.985 39.4582 420.964L94.6372 420.863L272.987 420.378Z" fill="#0067B0"/>
<path d="M314.203 131.996C316.415 132.136 317.85 132.909 319.516 134.312C324.172 138.235 327.772 143.711 331.08 148.761C345.27 170.244 354.14 194.797 356.953 220.389C358.703 237.85 356.812 255.484 351.399 272.178C333.931 324.775 284.345 342.166 246.328 376.062C238.279 383.239 231.995 391.378 225.221 399.671C224.877 399.971 224.529 400.267 224.177 400.558C221.957 402.387 220.034 403.476 217.096 403.083C209.985 402.132 202.478 393.7 198.319 388.292C188.229 375.174 184.139 360.58 184.621 344.137C184.89 334.984 186.764 325.829 189.46 317.096C199.068 285.973 220.258 270.019 242.612 248.708C260.058 232.076 277.303 214.754 290.417 194.398C298.874 181.27 305.855 166.228 308.695 150.782C309.45 146.676 309.321 142.455 309.949 138.334C310.451 135.035 311.545 133.91 314.203 131.996Z" fill="url(#paint1_linear_2057_8)"/>
<defs>
<linearGradient id="paint0_linear_2057_8" x1="208.041" y1="387.1" x2="114.189" y2="13.4303" gradientUnits="userSpaceOnUse">
<stop stop-color="#0592F8"/>
<stop offset="1" stop-color="#0BC2FF"/>
</linearGradient>
<linearGradient id="paint1_linear_2057_8" x1="295.065" y1="382.961" x2="237.202" y2="152.309" gradientUnits="userSpaceOnUse">
<stop stop-color="#068EF5"/>
<stop offset="1" stop-color="#09AEFF"/>
</linearGradient>
</defs>
</svg>
